<mxfile host="app.diagrams.net" modified="2024-05-13T04:55:42.863Z" agent="Mozilla/5.0 (X11; Linux x86_64; rv:125.0) Gecko/20100101 Firefox/125.0" version="24.4.0" etag="iisZJgaLNyvj5w7xj0Sn" type="github">
  <diagram name="Page-1" id="KUQL_RwF_IhgneKByQmC">
    <mxGraphModel>
      <root>
        <mxCell id="0" />
        <mxCell id="1" parent="0" />
      </root>
    </mxGraphModel>
  </diagram>
</mxfile>
